<svg xmlns="http://www.w3.org/2000/svg" viewBox="0 0 1400 700" fill="none" stroke="#d6b67b" stroke-opacity="0.22" stroke-width="1.2"><path d="M1183.6 180.0 L1183.8 181.4 L1183.9 182.8 L1183.7 184.2 L1183.5 185.5 L1183.0 186.9 L1182.5 188.2 L1181.8 189.5 L1180.9 190.7 L1180.0 191.9 L1178.9 193.0 L1177.8 194.1 L1176.7 195.1 L1175.5 196.1 L1174.3 197.1 L1173.1 198.0 L1171.8 198.9 L1170.6 199.8 L1169.3 200.7 L1168.0 201.6 L1166.6 202.5 L1165.2 203.3 L1163.8 204.1 L1162.2 204.9 L1160.6 205.5 L1158.9 206.0 L1157.2 206.4 L1155.4 206.7 L1153.6 206.8 L1151.8 206.8 L1150.0 206.6 L1148.2 206.3 L1146.5 205.8 L1144.9 205.2 L1143.3 204.5 L1141.8 203.7 L1140.5 202.9 L1139.1 202.1 L1137.9 201.2 L1136.7 200.4 L1135.5 199.5 L1134.4 198.7 L1133.3 198.0 L1132.1 197.2 L1130.9 196.5 L1129.7 195.8 L1128.5 195.1 L1127.3 194.3 L1126.1 193.6 L1124.8 192.7 L1123.7 191.9 L1122.5 190.9 L1121.5 189.9 L1120.5 188.8 L1119.6 187.7 L1118.8 186.5 L1118.2 185.3 L1117.6 184.0 L1117.2 182.7 L1116.9 181.4 L1116.6 180.0 L1116.5 178.6 L1116.4 177.2 L1116.4 175.8 L1116.4 174.4 L1116.6 173.0 L1116.8 171.6 L1117.1 170.1 L1117.5 168.7 L1118.0 167.3 L1118.6 165.9 L1119.4 164.5 L1120.4 163.2 L1121.5 162.0 L1122.8 160.9 L1124.2 159.8 L1125.7 159.0 L1127.4 158.2 L1129.1 157.6 L1131.0 157.2 L1132.9 156.8 L1134.7 156.6 L1136.6 156.6 L1138.5 156.6 L1140.3 156.7 L1142.0 156.8 L1143.7 157.0 L1145.4 157.1 L1146.9 157.3 L1148.5 157.4 L1150.0 157.5 L1151.5 157.6 L1153.0 157.6 L1154.5 157.6 L1156.1 157.6 L1157.7 157.6 L1159.3 157.7 L1160.9 157.8 L1162.5 158.1 L1164.1 158.3 L1165.7 158.7 L1167.3 159.2 L1168.8 159.8 L1170.2 160.6 L1171.5 161.4 L1172.8 162.2 L1173.9 163.2 L1175.0 164.2 L1176.0 165.3 L1176.9 166.4 L1177.7 167.5 L1178.5 168.7 L1179.3 169.8 L1180.0 171.0 L1180.7 172.2 L1181.3 173.5 L1181.9 174.7 L1182.5 176.0 L1183.0 177.3 L1183.4 178.6Z"/><path d="M1217.6 180.0 L1217.8 182.8 L1217.9 185.6 L1217.6 188.3 L1217.0 191.1 L1216.1 193.8 L1214.9 196.5 L1213.5 199.0 L1211.8 201.5 L1209.9 203.8 L1207.8 206.0 L1205.6 208.2 L1203.4 210.2 L1201.0 212.2 L1198.6 214.2 L1196.2 216.1 L1193.8 217.9 L1191.3 219.8 L1188.7 221.6 L1186.1 223.4 L1183.4 225.1 L1180.5 226.8 L1177.6 228.3 L1174.5 229.7 L1171.2 230.9 L1167.8 232.0 L1164.4 232.7 L1160.8 233.2 L1157.2 233.3 L1153.6 233.2 L1150.0 232.7 L1146.5 232.0 L1143.1 231.0 L1139.9 229.8 L1136.8 228.4 L1133.9 226.9 L1131.1 225.3 L1128.5 223.7 L1126.0 222.0 L1123.6 220.4 L1121.2 218.8 L1118.9 217.3 L1116.6 215.9 L1114.2 214.5 L1111.8 213.1 L1109.4 211.7 L1106.9 210.3 L1104.4 208.8 L1101.8 207.3 L1099.4 205.6 L1097.0 203.9 L1094.7 202.0 L1092.5 200.0 L1090.6 197.8 L1088.8 195.5 L1087.2 193.1 L1085.9 190.6 L1084.8 188.1 L1083.9 185.4 L1083.2 182.7 L1082.7 180.0 L1082.3 177.2 L1082.2 174.4 L1082.1 171.6 L1082.3 168.8 L1082.5 165.9 L1083.0 163.0 L1083.7 160.1 L1084.6 157.3 L1085.7 154.4 L1087.1 151.7 L1088.8 149.0 L1090.8 146.4 L1093.1 144.0 L1095.7 141.9 L1098.6 139.9 L1101.8 138.2 L1105.1 136.8 L1108.7 135.7 L1112.4 134.8 L1116.1 134.2 L1119.9 133.9 L1123.6 133.7 L1127.2 133.8 L1130.8 133.9 L1134.3 134.2 L1137.6 134.4 L1140.8 134.7 L1143.9 134.9 L1147.0 135.1 L1150.0 135.2 L1153.0 135.2 L1156.0 135.2 L1159.1 135.2 L1162.2 135.2 L1165.4 135.2 L1168.6 135.3 L1171.9 135.6 L1175.1 136.0 L1178.4 136.6 L1181.5 137.4 L1184.6 138.4 L1187.6 139.6 L1190.4 141.1 L1193.1 142.7 L1195.6 144.4 L1197.9 146.4 L1200.0 148.4 L1202.0 150.5 L1203.9 152.7 L1205.6 155.0 L1207.3 157.2 L1208.8 159.6 L1210.3 162.0 L1211.7 164.4 L1213.0 166.8 L1214.2 169.4 L1215.3 171.9 L1216.2 174.6 L1217.0 177.3Z"/><path d="M1251.7 180.0 L1252.0 184.2 L1252.0 188.4 L1251.5 192.5 L1250.5 196.7 L1249.1 200.7 L1247.3 204.7 L1245.1 208.5 L1242.5 212.1 L1239.7 215.7 L1236.7 219.0 L1233.4 222.3 L1230.1 225.4 L1226.6 228.4 L1223.1 231.3 L1219.5 234.2 L1215.8 237.0 L1212.1 239.8 L1208.3 242.5 L1204.3 245.2 L1200.2 247.8 L1195.9 250.3 L1191.4 252.5 L1186.7 254.5 L1181.8 256.3 L1176.7 257.7 L1171.4 258.7 L1166.1 259.3 L1160.7 259.4 L1155.3 259.1 L1150.0 258.4 L1144.8 257.2 L1139.8 255.7 L1135.0 253.9 L1130.4 251.8 L1126.1 249.6 L1122.0 247.3 L1118.0 244.9 L1114.3 242.6 L1110.6 240.3 L1107.1 238.0 L1103.5 235.9 L1099.9 233.8 L1096.3 231.7 L1092.6 229.7 L1088.8 227.7 L1085.0 225.7 L1081.1 223.5 L1077.3 221.2 L1073.5 218.7 L1069.9 216.1 L1066.4 213.2 L1063.2 210.2 L1060.2 206.9 L1057.5 203.4 L1055.1 199.8 L1053.1 196.1 L1051.4 192.2 L1050.0 188.2 L1049.0 184.1 L1048.2 180.0 L1047.6 175.8 L1047.4 171.6 L1047.3 167.3 L1047.5 163.0 L1048.0 158.7 L1048.8 154.4 L1049.9 150.0 L1051.3 145.7 L1053.2 141.5 L1055.4 137.4 L1058.1 133.4 L1061.3 129.7 L1064.9 126.2 L1068.9 123.1 L1073.4 120.2 L1078.2 117.8 L1083.4 115.8 L1088.7 114.2 L1094.2 113.0 L1099.8 112.2 L1105.4 111.7 L1110.9 111.5 L1116.3 111.5 L1121.5 111.7 L1126.6 112.0 L1131.5 112.3 L1136.3 112.5 L1140.9 112.7 L1145.5 112.9 L1150.0 112.9 L1154.5 112.9 L1159.1 112.8 L1163.7 112.7 L1168.4 112.6 L1173.1 112.6 L1178.0 112.8 L1182.9 113.2 L1187.8 113.8 L1192.6 114.7 L1197.4 115.9 L1202.0 117.5 L1206.5 119.3 L1210.7 121.5 L1214.7 123.9 L1218.5 126.6 L1222.0 129.4 L1225.2 132.5 L1228.3 135.6 L1231.1 138.9 L1233.8 142.3 L1236.3 145.7 L1238.6 149.2 L1240.9 152.8 L1243.0 156.4 L1245.0 160.1 L1246.9 163.9 L1248.5 167.8 L1249.9 171.8 L1250.9 175.9Z"/><path d="M1286.0 180.0 L1286.4 185.6 L1286.2 191.2 L1285.4 196.7 L1284.0 202.2 L1282.1 207.6 L1279.6 212.8 L1276.6 217.9 L1273.2 222.8 L1269.5 227.5 L1265.5 232.0 L1261.2 236.3 L1256.8 240.5 L1252.2 244.5 L1247.5 248.5 L1242.8 252.4 L1237.9 256.2 L1233.0 259.9 L1227.8 263.6 L1222.5 267.1 L1217.0 270.5 L1211.2 273.7 L1205.2 276.7 L1198.8 279.3 L1192.3 281.4 L1185.4 283.2 L1178.4 284.3 L1171.3 285.0 L1164.2 285.0 L1157.0 284.5 L1150.0 283.4 L1143.2 281.9 L1136.5 279.8 L1130.2 277.4 L1124.2 274.7 L1118.4 271.9 L1113.0 268.9 L1107.7 265.9 L1102.7 262.9 L1097.8 259.9 L1092.9 257.1 L1088.1 254.4 L1083.2 251.7 L1078.2 249.1 L1073.2 246.6 L1068.0 244.0 L1062.8 241.2 L1057.6 238.4 L1052.4 235.3 L1047.3 232.0 L1042.4 228.5 L1037.7 224.6 L1033.3 220.5 L1029.3 216.1 L1025.7 211.5 L1022.5 206.6 L1019.8 201.6 L1017.5 196.4 L1015.6 191.0 L1014.2 185.6 L1013.1 180.0 L1012.4 174.4 L1012.0 168.7 L1012.0 163.0 L1012.3 157.2 L1013.1 151.4 L1014.2 145.6 L1015.8 139.8 L1017.9 134.1 L1020.5 128.5 L1023.7 123.1 L1027.5 118.0 L1031.9 113.1 L1036.9 108.6 L1042.5 104.5 L1048.6 100.9 L1055.1 97.8 L1062.0 95.3 L1069.2 93.3 L1076.5 91.8 L1083.9 90.7 L1091.3 90.1 L1098.5 89.8 L1105.6 89.8 L1112.5 90.0 L1119.1 90.2 L1125.6 90.5 L1131.9 90.7 L1138.0 90.8 L1144.0 90.8 L1150.0 90.7 L1156.0 90.5 L1162.1 90.3 L1168.3 90.1 L1174.5 89.9 L1180.9 89.9 L1187.4 90.1 L1194.0 90.6 L1200.5 91.5 L1207.0 92.7 L1213.4 94.4 L1219.5 96.5 L1225.5 99.0 L1231.2 101.8 L1236.5 105.1 L1241.5 108.6 L1246.2 112.4 L1250.6 116.5 L1254.7 120.7 L1258.6 125.0 L1262.2 129.5 L1265.6 134.1 L1268.8 138.7 L1271.9 143.5 L1274.7 148.4 L1277.4 153.4 L1279.8 158.5 L1282.0 163.7 L1283.7 169.0 L1285.1 174.5Z"/><path d="M1320.4 180.0 L1320.8 187.0 L1320.4 194.0 L1319.3 200.9 L1317.5 207.8 L1315.0 214.5 L1311.8 221.0 L1308.1 227.3 L1303.9 233.4 L1299.2 239.3 L1294.2 244.9 L1288.9 250.4 L1283.5 255.6 L1277.8 260.7 L1272.1 265.7 L1266.2 270.6 L1260.1 275.4 L1253.9 280.1 L1247.5 284.7 L1240.8 289.1 L1233.8 293.3 L1226.5 297.2 L1218.9 300.7 L1210.9 303.8 L1202.6 306.4 L1194.1 308.3 L1185.3 309.6 L1176.4 310.3 L1167.5 310.2 L1158.7 309.4 L1150.0 308.0 L1141.5 305.9 L1133.4 303.4 L1125.5 300.5 L1118.1 297.2 L1110.9 293.7 L1104.1 290.2 L1097.6 286.6 L1091.2 283.0 L1085.0 279.5 L1078.8 276.2 L1072.6 273.0 L1066.3 269.8 L1060.0 266.7 L1053.5 263.6 L1046.9 260.4 L1040.3 257.1 L1033.6 253.5 L1027.0 249.7 L1020.6 245.6 L1014.4 241.1 L1008.5 236.3 L1003.0 231.1 L997.9 225.5 L993.4 219.7 L989.4 213.6 L985.9 207.2 L983.0 200.6 L980.6 193.9 L978.8 187.0 L977.4 180.0 L976.5 172.9 L976.1 165.7 L976.2 158.5 L976.7 151.3 L977.8 144.0 L979.4 136.8 L981.6 129.6 L984.4 122.5 L987.9 115.6 L992.2 108.9 L997.2 102.6 L1002.9 96.7 L1009.4 91.2 L1016.6 86.3 L1024.3 82.0 L1032.6 78.3 L1041.3 75.3 L1050.2 72.9 L1059.3 71.1 L1068.5 69.9 L1077.5 69.1 L1086.5 68.7 L1095.2 68.6 L1103.6 68.7 L1111.8 68.8 L1119.7 69.0 L1127.5 69.0 L1135.0 69.0 L1142.5 68.8 L1150.0 68.5 L1157.5 68.1 L1165.1 67.7 L1172.9 67.3 L1180.8 67.1 L1188.8 67.0 L1196.9 67.3 L1205.2 67.9 L1213.3 69.0 L1221.5 70.6 L1229.4 72.7 L1237.2 75.3 L1244.6 78.4 L1251.7 82.1 L1258.4 86.1 L1264.7 90.5 L1270.6 95.3 L1276.2 100.3 L1281.4 105.5 L1286.3 111.0 L1290.9 116.6 L1295.2 122.3 L1299.3 128.1 L1303.2 134.1 L1306.8 140.3 L1310.1 146.5 L1313.1 153.0 L1315.7 159.5 L1317.9 166.2 L1319.5 173.1Z"/><path d="M1355.0 180.0 L1355.2 188.4 L1354.6 196.8 L1353.2 205.1 L1350.9 213.3 L1347.8 221.3 L1343.9 229.2 L1339.5 236.7 L1334.4 244.0 L1328.8 251.1 L1322.9 257.9 L1316.7 264.4 L1310.2 270.8 L1303.5 277.0 L1296.6 283.0 L1289.6 288.9 L1282.3 294.6 L1274.9 300.3 L1267.1 305.7 L1259.0 311.0 L1250.6 315.9 L1241.8 320.5 L1232.5 324.6 L1222.9 328.1 L1212.9 331.0 L1202.6 333.1 L1192.1 334.5 L1181.5 335.1 L1170.9 334.8 L1160.3 333.8 L1150.0 332.0 L1140.0 329.5 L1130.3 326.5 L1121.0 323.0 L1112.1 319.3 L1103.5 315.3 L1095.4 311.2 L1087.5 307.1 L1079.8 303.0 L1072.2 299.1 L1064.6 295.3 L1057.0 291.7 L1049.3 288.1 L1041.5 284.5 L1033.6 280.9 L1025.5 277.1 L1017.4 273.1 L1009.3 268.9 L1001.2 264.3 L993.4 259.3 L985.9 253.9 L978.7 248.1 L972.1 241.8 L966.0 235.1 L960.5 228.0 L955.6 220.6 L951.5 212.9 L948.0 205.0 L945.1 196.8 L942.9 188.5 L941.2 180.0 L940.2 171.4 L939.8 162.8 L939.9 154.0 L940.7 145.3 L942.2 136.6 L944.3 127.9 L947.2 119.3 L950.9 110.9 L955.4 102.7 L960.9 94.8 L967.2 87.4 L974.3 80.5 L982.4 74.1 L991.1 68.4 L1000.6 63.5 L1010.6 59.3 L1021.0 55.8 L1031.8 53.1 L1042.6 51.0 L1053.4 49.6 L1064.2 48.6 L1074.7 48.1 L1085.0 47.8 L1094.9 47.8 L1104.6 47.8 L1113.9 47.7 L1123.1 47.6 L1132.1 47.3 L1141.1 46.8 L1150.0 46.3 L1159.0 45.6 L1168.2 45.0 L1177.5 44.4 L1187.0 44.1 L1196.7 44.0 L1206.5 44.3 L1216.4 45.0 L1226.3 46.4 L1236.0 48.3 L1245.6 50.8 L1254.9 54.0 L1263.8 57.8 L1272.4 62.1 L1280.4 67.0 L1288.1 72.3 L1295.2 78.0 L1302.0 84.0 L1308.3 90.3 L1314.3 96.8 L1319.9 103.5 L1325.2 110.4 L1330.2 117.4 L1334.9 124.6 L1339.2 132.0 L1343.2 139.6 L1346.7 147.4 L1349.8 155.3 L1352.2 163.4 L1354.0 171.7Z"/><path d="M1389.6 180.0 L1389.7 189.8 L1388.8 199.6 L1386.9 209.3 L1384.1 218.8 L1380.5 228.2 L1376.0 237.3 L1370.7 246.1 L1364.8 254.6 L1358.4 262.8 L1351.6 270.8 L1344.4 278.5 L1336.9 285.9 L1329.2 293.2 L1321.2 300.2 L1313.0 307.2 L1304.6 313.9 L1295.8 320.5 L1286.7 326.8 L1277.2 332.8 L1267.3 338.5 L1256.9 343.6 L1246.0 348.2 L1234.7 352.1 L1223.0 355.2 L1211.0 357.5 L1198.8 358.9 L1186.4 359.4 L1174.1 358.9 L1161.9 357.6 L1150.0 355.4 L1138.4 352.6 L1127.2 349.1 L1116.5 345.2 L1106.1 341.0 L1096.2 336.5 L1086.7 332.0 L1077.4 327.5 L1068.3 323.1 L1059.3 318.8 L1050.4 314.6 L1041.3 310.5 L1032.1 306.5 L1022.8 302.5 L1013.3 298.4 L1003.7 294.1 L994.1 289.5 L984.4 284.6 L974.9 279.2 L965.7 273.4 L956.8 267.0 L948.4 260.1 L940.6 252.7 L933.5 244.8 L927.0 236.5 L921.3 227.8 L916.4 218.7 L912.3 209.4 L909.0 199.8 L906.4 190.0 L904.5 180.0 L903.4 169.9 L903.0 159.8 L903.4 149.5 L904.5 139.3 L906.4 129.1 L909.2 119.0 L912.9 109.0 L917.5 99.3 L923.2 89.9 L929.9 80.9 L937.6 72.4 L946.3 64.5 L955.9 57.4 L966.3 51.0 L977.5 45.4 L989.2 40.7 L1001.4 36.9 L1013.8 33.8 L1026.4 31.5 L1038.8 29.8 L1051.2 28.7 L1063.2 28.0 L1075.0 27.5 L1086.4 27.2 L1097.4 27.0 L1108.2 26.6 L1118.8 26.2 L1129.2 25.6 L1139.6 24.8 L1150.0 24.0 L1160.5 23.0 L1171.3 22.1 L1182.2 21.3 L1193.4 20.8 L1204.7 20.7 L1216.2 21.0 L1227.8 21.9 L1239.3 23.5 L1250.7 25.8 L1261.9 28.8 L1272.8 32.6 L1283.2 37.0 L1293.2 42.1 L1302.7 47.7 L1311.6 53.9 L1320.1 60.5 L1328.0 67.5 L1335.5 74.9 L1342.6 82.5 L1349.2 90.3 L1355.5 98.3 L1361.4 106.6 L1366.9 115.1 L1371.9 123.8 L1376.5 132.7 L1380.6 141.8 L1384.0 151.1 L1386.7 160.6 L1388.6 170.2Z"/><path d="M1424.2 180.0 L1424.1 191.2 L1422.9 202.4 L1420.6 213.4 L1417.3 224.3 L1413.0 235.0 L1407.8 245.3 L1401.8 255.4 L1395.2 265.1 L1387.9 274.6 L1380.2 283.7 L1372.1 292.5 L1363.6 301.0 L1354.8 309.4 L1345.8 317.5 L1336.5 325.4 L1326.8 333.2 L1316.7 340.6 L1306.3 347.8 L1295.3 354.5 L1283.8 360.8 L1271.9 366.5 L1259.3 371.6 L1246.4 375.8 L1232.9 379.1 L1219.2 381.5 L1205.3 382.8 L1191.3 383.2 L1177.3 382.5 L1163.5 380.9 L1150.0 378.4 L1136.9 375.2 L1124.2 371.3 L1112.0 367.0 L1100.3 362.4 L1089.0 357.6 L1078.0 352.7 L1067.4 347.9 L1056.9 343.2 L1046.4 338.5 L1036.0 334.1 L1025.4 329.7 L1014.7 325.3 L1003.8 320.8 L992.7 316.3 L981.5 311.4 L970.3 306.2 L959.1 300.6 L948.1 294.4 L937.5 287.7 L927.2 280.3 L917.6 272.4 L908.6 263.8 L900.4 254.7 L893.0 245.1 L886.5 235.1 L880.9 224.6 L876.2 213.8 L872.4 202.8 L869.4 191.5 L867.4 180.0 L866.2 168.4 L865.9 156.7 L866.5 145.0 L868.1 133.3 L870.6 121.6 L874.1 110.1 L878.7 98.8 L884.4 87.8 L891.3 77.2 L899.3 67.1 L908.5 57.7 L918.7 48.9 L930.0 41.0 L942.1 34.0 L955.0 27.9 L968.5 22.7 L982.3 18.5 L996.4 15.1 L1010.6 12.5 L1024.6 10.6 L1038.4 9.2 L1052.0 8.3 L1065.1 7.5 L1077.9 7.0 L1090.4 6.4 L1102.5 5.7 L1114.4 4.9 L1126.3 3.9 L1138.1 2.7 L1150.0 1.5 L1162.1 0.2 L1174.4 -1.0 L1187.0 -2.0 L1199.8 -2.7 L1212.8 -2.8 L1226.0 -2.5 L1239.3 -1.4 L1252.5 0.5 L1265.5 3.1 L1278.4 6.6 L1290.8 10.9 L1302.8 16.0 L1314.2 21.8 L1325.1 28.3 L1335.5 35.3 L1345.2 42.9 L1354.4 50.9 L1363.1 59.3 L1371.2 67.9 L1378.9 76.9 L1386.1 86.2 L1392.9 95.6 L1399.2 105.4 L1405.0 115.4 L1410.1 125.6 L1414.6 136.1 L1418.4 146.8 L1421.3 157.8 L1423.2 168.8Z"/><path d="M1458.7 180.0 L1458.3 192.6 L1456.8 205.2 L1454.1 217.6 L1450.3 229.8 L1445.4 241.7 L1439.6 253.4 L1432.8 264.7 L1425.4 275.6 L1417.3 286.2 L1408.7 296.5 L1399.7 306.5 L1390.3 316.2 L1380.5 325.6 L1370.4 334.8 L1359.9 343.7 L1348.9 352.3 L1337.6 360.7 L1325.7 368.6 L1313.3 376.1 L1300.3 383.0 L1286.7 389.2 L1272.5 394.6 L1257.8 399.1 L1242.7 402.6 L1227.3 405.0 L1211.7 406.3 L1196.0 406.5 L1180.4 405.6 L1165.0 403.7 L1150.0 400.9 L1135.4 397.4 L1121.3 393.2 L1107.6 388.6 L1094.5 383.7 L1081.8 378.6 L1069.4 373.5 L1057.3 368.4 L1045.3 363.4 L1033.4 358.5 L1021.4 353.8 L1009.2 349.1 L996.9 344.4 L984.4 339.5 L971.7 334.5 L958.9 329.1 L946.0 323.2 L933.3 316.9 L920.8 309.9 L908.7 302.2 L897.1 293.9 L886.2 284.9 L876.0 275.2 L866.7 264.8 L858.4 253.9 L851.0 242.5 L844.7 230.6 L839.5 218.4 L835.2 205.8 L832.0 193.0 L829.8 180.0 L828.7 166.9 L828.6 153.6 L829.5 140.4 L831.6 127.2 L834.8 114.1 L839.2 101.2 L844.8 88.6 L851.7 76.4 L859.9 64.7 L869.4 53.6 L880.1 43.3 L891.9 33.7 L904.8 25.1 L918.6 17.5 L933.2 10.9 L948.4 5.3 L963.9 0.7 L979.5 -3.0 L995.2 -5.9 L1010.8 -8.1 L1026.0 -9.8 L1040.9 -11.1 L1055.4 -12.1 L1069.6 -13.1 L1083.3 -14.1 L1096.8 -15.2 L1110.1 -16.5 L1123.3 -17.9 L1136.6 -19.5 L1150.0 -21.2 L1163.6 -22.8 L1177.5 -24.3 L1191.7 -25.6 L1206.2 -26.4 L1221.0 -26.6 L1235.9 -26.2 L1250.9 -25.0 L1265.8 -22.8 L1280.5 -19.8 L1295.0 -15.9 L1309.0 -11.0 L1322.5 -5.2 L1335.5 1.3 L1347.8 8.6 L1359.5 16.6 L1370.6 25.1 L1381.1 34.1 L1390.9 43.5 L1400.2 53.3 L1408.9 63.4 L1417.1 73.8 L1424.8 84.6 L1431.8 95.6 L1438.2 107.0 L1443.9 118.6 L1448.8 130.5 L1452.8 142.6 L1455.9 154.9 L1457.8 167.4Z"/><path d="M1493.1 180.0 L1492.5 194.0 L1490.6 207.9 L1487.5 221.7 L1483.1 235.2 L1477.6 248.5 L1471.1 261.4 L1463.7 273.9 L1455.5 286.1 L1446.7 297.9 L1437.2 309.3 L1427.3 320.5 L1416.9 331.3 L1406.1 341.8 L1394.9 352.0 L1383.2 361.9 L1371.0 371.4 L1358.3 380.6 L1345.0 389.3 L1331.1 397.5 L1316.5 404.9 L1301.3 411.6 L1285.4 417.3 L1269.1 422.0 L1252.3 425.6 L1235.2 428.0 L1217.9 429.2 L1200.6 429.3 L1183.4 428.2 L1166.5 426.1 L1150.0 423.1 L1133.9 419.3 L1118.4 414.8 L1103.3 410.0 L1088.7 404.8 L1074.6 399.6 L1060.8 394.2 L1047.2 389.0 L1033.7 383.8 L1020.2 378.8 L1006.6 373.8 L992.8 368.8 L978.8 363.8 L964.6 358.6 L950.2 353.1 L935.7 347.1 L921.3 340.6 L906.9 333.5 L892.9 325.7 L879.3 317.1 L866.4 307.7 L854.1 297.6 L842.8 286.7 L832.5 275.1 L823.2 262.8 L815.1 250.0 L808.1 236.7 L802.3 223.0 L797.7 208.9 L794.2 194.5 L792.0 180.0 L790.9 165.3 L791.1 150.6 L792.5 135.8 L795.2 121.2 L799.2 106.7 L804.6 92.5 L811.3 78.6 L819.5 65.2 L829.1 52.5 L840.0 40.4 L852.3 29.2 L865.8 18.9 L880.4 9.7 L895.9 1.5 L912.1 -5.6 L928.9 -11.6 L946.0 -16.5 L963.2 -20.6 L980.3 -23.8 L997.3 -26.4 L1013.9 -28.4 L1030.1 -30.1 L1045.9 -31.6 L1061.3 -33.0 L1076.3 -34.5 L1091.1 -36.1 L1105.8 -37.9 L1120.4 -39.8 L1135.1 -41.9 L1150.0 -44.1 L1165.2 -46.1 L1180.7 -48.0 L1196.6 -49.5 L1212.8 -50.4 L1229.3 -50.7 L1245.9 -50.2 L1262.6 -48.8 L1279.2 -46.4 L1295.7 -43.0 L1311.8 -38.5 L1327.4 -33.1 L1342.5 -26.7 L1357.0 -19.4 L1370.8 -11.3 L1383.9 -2.4 L1396.3 7.0 L1408.0 17.0 L1419.1 27.5 L1429.5 38.4 L1439.3 49.7 L1448.4 61.4 L1456.9 73.4 L1464.7 85.8 L1471.7 98.5 L1477.9 111.5 L1483.1 124.8 L1487.4 138.3 L1490.5 152.1 L1492.4 166.0Z"/><path d="M1527.4 180.0 L1526.5 195.4 L1524.2 210.7 L1520.6 225.8 L1515.7 240.6 L1509.7 255.2 L1502.5 269.3 L1494.5 283.1 L1485.5 296.5 L1475.9 309.5 L1465.6 322.1 L1454.8 334.4 L1443.5 346.3 L1431.6 357.9 L1419.3 369.1 L1406.4 380.0 L1392.9 390.4 L1378.8 400.4 L1364.1 409.8 L1348.6 418.6 L1332.5 426.5 L1315.6 433.6 L1298.2 439.6 L1280.1 444.4 L1261.7 448.1 L1242.9 450.5 L1224.0 451.7 L1205.2 451.6 L1186.4 450.4 L1168.0 448.1 L1150.0 444.8 L1132.5 440.9 L1115.5 436.3 L1099.0 431.3 L1083.0 426.0 L1067.4 420.6 L1052.0 415.2 L1036.9 409.8 L1021.8 404.5 L1006.7 399.3 L991.5 394.2 L976.0 389.0 L960.3 383.7 L944.4 378.1 L928.3 372.1 L912.1 365.6 L896.0 358.4 L880.0 350.5 L864.4 341.8 L849.4 332.3 L835.0 321.8 L821.5 310.5 L809.0 298.4 L797.7 285.5 L787.5 271.9 L778.5 257.6 L770.9 242.8 L764.6 227.6 L759.7 212.0 L756.1 196.1 L753.9 180.0 L753.0 163.8 L753.6 147.5 L755.5 131.3 L759.0 115.2 L763.9 99.3 L770.3 83.8 L778.3 68.7 L787.9 54.2 L798.9 40.5 L811.4 27.5 L825.3 15.5 L840.5 4.6 L856.7 -5.2 L873.9 -13.9 L891.7 -21.5 L910.0 -27.9 L928.6 -33.2 L947.2 -37.7 L965.8 -41.3 L984.0 -44.2 L1001.9 -46.7 L1019.4 -48.9 L1036.4 -50.8 L1053.0 -52.8 L1069.3 -54.9 L1085.4 -57.1 L1101.4 -59.4 L1117.4 -62.0 L1133.6 -64.6 L1150.0 -67.2 L1166.8 -69.7 L1183.9 -71.9 L1201.5 -73.7 L1219.4 -74.8 L1237.6 -75.1 L1256.0 -74.5 L1274.5 -72.9 L1292.9 -70.3 L1311.0 -66.5 L1328.8 -61.5 L1346.1 -55.5 L1362.7 -48.4 L1378.8 -40.3 L1394.0 -31.4 L1408.6 -21.7 L1422.3 -11.3 L1435.3 -0.2 L1447.6 11.3 L1459.1 23.4 L1469.9 35.9 L1480.0 48.9 L1489.2 62.2 L1497.7 75.9 L1505.3 90.0 L1511.9 104.4 L1517.4 119.1 L1521.8 134.1 L1525.0 149.3 L1526.9 164.6Z"/><path d="M1561.4 180.0 L1560.2 196.8 L1557.6 213.4 L1553.5 229.8 L1548.1 246.0 L1541.5 261.8 L1533.8 277.3 L1525.0 292.3 L1515.4 306.9 L1505.0 321.1 L1493.9 334.9 L1482.2 348.3 L1469.9 361.3 L1457.0 373.9 L1443.6 386.2 L1429.5 398.0 L1414.7 409.3 L1399.2 420.0 L1383.0 430.1 L1366.0 439.4 L1348.2 447.8 L1329.8 455.2 L1310.6 461.4 L1291.0 466.4 L1270.9 470.2 L1250.5 472.6 L1230.0 473.7 L1209.6 473.5 L1189.4 472.1 L1169.5 469.7 L1150.0 466.4 L1131.0 462.3 L1112.6 457.6 L1094.7 452.5 L1077.2 447.2 L1060.1 441.8 L1043.2 436.3 L1026.5 430.9 L1009.8 425.6 L993.0 420.3 L976.1 415.0 L958.8 409.6 L941.4 404.0 L923.7 398.0 L905.8 391.5 L887.9 384.4 L870.1 376.6 L852.5 367.9 L835.4 358.3 L818.9 347.7 L803.1 336.2 L788.4 323.7 L774.7 310.3 L762.3 296.1 L751.2 281.1 L741.6 265.4 L733.4 249.1 L726.6 232.3 L721.4 215.1 L717.8 197.7 L715.7 180.0 L715.1 162.2 L716.1 144.4 L718.8 126.7 L723.1 109.2 L729.0 92.0 L736.7 75.2 L746.0 59.0 L757.0 43.5 L769.6 28.8 L783.7 15.0 L799.2 2.3 L816.0 -9.3 L833.9 -19.7 L852.6 -28.9 L872.0 -36.8 L891.8 -43.7 L911.8 -49.5 L931.8 -54.3 L951.6 -58.3 L971.0 -61.8 L990.1 -64.7 L1008.8 -67.4 L1027.0 -70.0 L1044.8 -72.6 L1062.3 -75.3 L1079.6 -78.2 L1097.0 -81.2 L1114.4 -84.4 L1132.0 -87.6 L1150.0 -90.7 L1168.4 -93.7 L1187.2 -96.2 L1206.5 -98.2 L1226.2 -99.5 L1246.1 -99.8 L1266.3 -99.2 L1286.5 -97.4 L1306.6 -94.4 L1326.5 -90.2 L1346.0 -84.8 L1364.9 -78.2 L1383.2 -70.4 L1400.8 -61.6 L1417.6 -51.8 L1433.5 -41.2 L1448.7 -29.8 L1463.0 -17.7 L1476.4 -5.0 L1489.0 8.3 L1500.8 22.0 L1511.8 36.2 L1521.8 50.9 L1530.9 66.0 L1539.0 81.4 L1546.0 97.2 L1551.8 113.4 L1556.3 129.8 L1559.4 146.4 L1561.1 163.2Z"/><path d="M1595.2 180.0 L1593.7 198.1 L1590.7 216.1 L1586.2 233.9 L1580.3 251.3 L1573.1 268.4 L1564.8 285.1 L1555.5 301.4 L1545.2 317.2 L1534.0 332.6 L1522.1 347.6 L1509.5 362.1 L1496.3 376.2 L1482.3 389.9 L1467.7 403.1 L1452.3 415.8 L1436.2 428.0 L1419.3 439.4 L1401.6 450.1 L1383.1 459.9 L1363.7 468.7 L1343.6 476.4 L1322.9 482.9 L1301.6 488.0 L1279.9 491.8 L1257.9 494.2 L1235.9 495.2 L1214.0 495.0 L1192.3 493.6 L1170.9 491.1 L1150.0 487.7 L1129.6 483.6 L1109.7 478.9 L1090.3 473.8 L1071.4 468.6 L1052.7 463.2 L1034.3 457.8 L1015.9 452.4 L997.6 447.0 L979.0 441.7 L960.3 436.3 L941.3 430.7 L922.0 424.7 L902.5 418.4 L882.9 411.4 L863.2 403.7 L843.7 395.1 L824.5 385.6 L805.8 375.1 L787.8 363.5 L770.7 350.8 L754.7 337.1 L739.9 322.4 L726.5 306.8 L714.5 290.4 L704.2 273.2 L695.4 255.4 L688.3 237.0 L683.0 218.3 L679.3 199.2 L677.4 180.0 L677.3 160.7 L678.9 141.4 L682.3 122.2 L687.6 103.3 L694.7 84.8 L703.7 66.9 L714.4 49.6 L726.9 33.1 L741.1 17.5 L756.8 2.9 L774.0 -10.5 L792.4 -22.7 L811.9 -33.6 L832.1 -43.3 L853.0 -51.7 L874.1 -59.0 L895.4 -65.2 L916.7 -70.5 L937.6 -75.1 L958.3 -79.0 L978.5 -82.6 L998.2 -85.9 L1017.5 -89.2 L1036.5 -92.5 L1055.2 -95.9 L1073.8 -99.5 L1092.5 -103.3 L1111.3 -107.1 L1130.5 -110.9 L1150.0 -114.6 L1170.0 -118.0 L1190.5 -120.9 L1211.6 -123.1 L1233.0 -124.5 L1254.8 -124.9 L1276.7 -124.2 L1298.7 -122.2 L1320.6 -118.9 L1342.3 -114.3 L1363.4 -108.4 L1384.1 -101.1 L1404.0 -92.7 L1423.1 -83.1 L1441.4 -72.5 L1458.8 -60.9 L1475.3 -48.5 L1490.9 -35.3 L1505.5 -21.5 L1519.3 -7.0 L1532.0 8.0 L1543.8 23.5 L1554.5 39.5 L1564.2 56.0 L1572.7 72.9 L1580.0 90.1 L1586.0 107.7 L1590.5 125.6 L1593.6 143.6 L1595.2 161.8Z"/><path d="M1628.8 180.0 L1626.9 199.5 L1623.5 218.8 L1618.6 237.9 L1612.2 256.6 L1604.6 275.0 L1595.7 293.0 L1585.7 310.5 L1574.8 327.5 L1562.9 344.1 L1550.2 360.2 L1536.7 375.9 L1522.5 391.1 L1507.5 405.8 L1491.6 419.9 L1475.0 433.5 L1457.5 446.4 L1439.2 458.6 L1420.0 469.8 L1399.8 480.1 L1378.9 489.3 L1357.2 497.2 L1334.9 503.8 L1312.0 509.1 L1288.7 512.9 L1265.2 515.4 L1241.7 516.4 L1218.3 516.2 L1195.1 514.7 L1172.3 512.3 L1150.0 508.9 L1128.2 504.8 L1106.8 500.3 L1086.0 495.3 L1065.5 490.2 L1045.3 484.9 L1025.2 479.6 L1005.2 474.3 L985.0 469.0 L964.7 463.6 L944.2 458.1 L923.3 452.3 L902.2 446.0 L880.9 439.2 L859.4 431.7 L838.0 423.4 L816.7 414.1 L795.9 403.7 L775.6 392.2 L756.1 379.5 L737.7 365.7 L720.4 350.7 L704.5 334.7 L690.1 317.7 L677.4 299.8 L666.4 281.1 L657.2 261.7 L649.8 241.8 L644.4 221.5 L640.8 200.8 L639.2 180.0 L639.6 159.1 L642.0 138.4 L646.4 117.8 L652.8 97.6 L661.1 77.8 L671.4 58.7 L683.7 40.4 L697.7 22.9 L713.5 6.5 L730.9 -8.7 L749.7 -22.8 L769.7 -35.5 L790.6 -47.0 L812.4 -57.1 L834.6 -66.0 L857.0 -73.8 L879.5 -80.5 L901.9 -86.4 L924.0 -91.5 L945.6 -96.1 L966.9 -100.4 L987.6 -104.4 L1008.0 -108.5 L1028.1 -112.5 L1048.1 -116.8 L1067.9 -121.1 L1087.9 -125.6 L1108.2 -130.2 L1128.9 -134.6 L1150.0 -138.9 L1171.7 -142.7 L1193.9 -146.0 L1216.7 -148.5 L1239.9 -150.0 L1263.5 -150.4 L1287.3 -149.6 L1311.1 -147.4 L1334.8 -143.8 L1358.2 -138.7 L1381.1 -132.3 L1403.5 -124.4 L1425.0 -115.3 L1445.8 -104.9 L1465.6 -93.4 L1484.4 -80.9 L1502.3 -67.4 L1519.1 -53.2 L1534.9 -38.1 L1549.7 -22.5 L1563.4 -6.2 L1575.9 10.7 L1587.3 28.1 L1597.5 46.0 L1606.4 64.3 L1613.9 83.0 L1620.0 102.1 L1624.6 121.4 L1627.6 140.8 L1629.0 160.4Z"/><path d="M1662.0 180.0 L1659.8 200.8 L1656.0 221.5 L1650.7 241.9 L1643.9 261.9 L1635.8 281.5 L1626.4 300.7 L1615.8 319.5 L1604.2 337.7 L1591.6 355.5 L1578.1 372.8 L1563.8 389.6 L1548.5 405.8 L1532.4 421.5 L1515.4 436.6 L1497.4 451.0 L1478.6 464.6 L1458.8 477.4 L1438.0 489.2 L1416.3 499.9 L1393.8 509.4 L1370.5 517.6 L1346.6 524.4 L1322.1 529.8 L1297.3 533.7 L1272.4 536.2 L1247.4 537.3 L1222.5 537.1 L1197.9 535.7 L1173.7 533.3 L1150.0 530.1 L1126.7 526.2 L1103.9 521.8 L1081.6 517.1 L1059.5 512.1 L1037.7 507.0 L1015.9 501.9 L994.1 496.7 L972.2 491.5 L950.1 486.0 L927.7 480.4 L904.9 474.4 L881.9 467.8 L858.7 460.6 L835.4 452.5 L812.2 443.5 L789.2 433.4 L766.7 422.1 L744.9 409.6 L723.9 395.8 L704.1 380.8 L685.7 364.5 L668.7 347.1 L653.4 328.7 L639.9 309.3 L628.3 289.0 L618.7 268.1 L611.2 246.6 L605.7 224.6 L602.4 202.4 L601.3 180.0 L602.4 157.6 L605.6 135.4 L611.0 113.4 L618.6 91.9 L628.3 71.0 L640.1 50.8 L653.9 31.5 L669.6 13.2 L687.0 -4.0 L706.0 -20.0 L726.3 -34.6 L747.8 -47.9 L770.2 -59.9 L793.3 -70.5 L816.8 -79.9 L840.4 -88.2 L864.0 -95.5 L887.4 -101.9 L910.4 -107.7 L933.1 -113.1 L955.3 -118.1 L977.1 -123.0 L998.5 -127.8 L1019.7 -132.8 L1040.8 -137.9 L1062.0 -143.1 L1083.3 -148.4 L1105.0 -153.7 L1127.2 -158.8 L1150.0 -163.6 L1173.4 -167.9 L1197.4 -171.5 L1221.9 -174.3 L1247.0 -175.9 L1272.4 -176.3 L1298.0 -175.4 L1323.7 -172.9 L1349.2 -169.0 L1374.4 -163.5 L1399.1 -156.5 L1423.1 -148.1 L1446.4 -138.2 L1468.7 -127.0 L1490.1 -114.6 L1510.4 -101.1 L1529.6 -86.6 L1547.6 -71.2 L1564.6 -54.9 L1580.3 -38.0 L1594.9 -20.3 L1608.2 -2.1 L1620.1 16.7 L1630.8 36.0 L1640.0 55.8 L1647.7 76.0 L1653.9 96.5 L1658.4 117.2 L1661.3 138.1 L1662.5 159.1Z"/><path d="M1694.8 180.0 L1692.3 202.2 L1688.2 224.1 L1682.5 245.8 L1675.3 267.1 L1666.7 288.0 L1656.8 308.4 L1645.7 328.4 L1633.5 347.9 L1620.2 366.9 L1605.9 385.3 L1590.6 403.2 L1574.3 420.5 L1557.1 437.1 L1538.8 453.1 L1519.6 468.3 L1499.3 482.6 L1478.0 495.9 L1455.7 508.2 L1432.5 519.3 L1408.4 529.1 L1383.6 537.5 L1358.1 544.5 L1332.1 550.0 L1305.8 554.1 L1279.4 556.6 L1253.0 557.8 L1226.7 557.8 L1200.7 556.6 L1175.2 554.4 L1150.0 551.4 L1125.3 547.8 L1101.0 543.6 L1077.1 539.2 L1053.4 534.5 L1029.9 529.7 L1006.4 524.7 L982.8 519.7 L959.1 514.5 L935.0 509.1 L910.7 503.3 L886.1 497.0 L861.1 490.1 L836.0 482.4 L810.9 473.8 L785.9 464.0 L761.1 453.1 L737.0 440.9 L713.6 427.3 L691.2 412.4 L670.1 396.1 L650.5 378.5 L632.5 359.7 L616.3 339.8 L602.1 318.9 L590.0 297.0 L580.1 274.5 L572.5 251.3 L567.2 227.8 L564.3 203.9 L563.7 180.0 L565.6 156.1 L569.8 132.4 L576.4 109.1 L585.3 86.4 L596.4 64.3 L609.8 43.1 L625.1 22.9 L642.4 3.7 L661.5 -14.2 L682.0 -30.7 L703.9 -46.0 L726.8 -59.8 L750.6 -72.3 L774.9 -83.5 L799.5 -93.4 L824.2 -102.3 L848.8 -110.2 L873.1 -117.3 L897.0 -123.9 L920.6 -130.0 L943.7 -135.9 L966.4 -141.7 L988.8 -147.5 L1011.1 -153.3 L1033.4 -159.3 L1055.9 -165.4 L1078.6 -171.6 L1101.8 -177.6 L1125.6 -183.4 L1150.0 -188.8 L1175.1 -193.6 L1200.9 -197.5 L1227.3 -200.5 L1254.2 -202.2 L1281.4 -202.6 L1308.9 -201.6 L1336.5 -198.9 L1363.8 -194.6 L1390.8 -188.7 L1417.3 -181.1 L1443.1 -172.0 L1468.0 -161.4 L1491.9 -149.4 L1514.8 -136.0 L1536.6 -121.5 L1557.1 -105.9 L1576.4 -89.3 L1594.4 -71.8 L1611.1 -53.6 L1626.5 -34.6 L1640.4 -14.9 L1652.9 5.3 L1663.9 26.1 L1673.4 47.4 L1681.2 69.0 L1687.4 90.9 L1691.9 113.1 L1694.6 135.4 L1695.6 157.7Z"/><path d="M184.7 640.0 L184.8 641.4 L184.8 642.8 L184.5 644.3 L184.0 645.6 L183.4 647.0 L182.6 648.3 L181.6 649.5 L180.4 650.6 L179.2 651.6 L177.9 652.6 L176.5 653.4 L175.1 654.2 L173.7 655.0 L172.3 655.7 L171.0 656.4 L169.6 657.0 L168.3 657.6 L167.0 658.3 L165.8 658.9 L164.5 659.6 L163.2 660.2 L161.9 660.9 L160.6 661.5 L159.2 662.0 L157.8 662.6 L156.3 663.1 L154.8 663.5 L153.2 663.8 L151.6 664.1 L150.0 664.3 L148.4 664.4 L146.7 664.5 L145.0 664.4 L143.4 664.4 L141.7 664.2 L140.0 664.0 L138.3 663.8 L136.6 663.5 L134.8 663.2 L133.1 662.9 L131.3 662.4 L129.6 661.9 L127.8 661.4 L126.1 660.7 L124.4 660.0 L122.8 659.1 L121.4 658.1 L120.0 657.0 L118.8 655.8 L117.8 654.5 L117.0 653.1 L116.4 651.7 L116.0 650.2 L115.9 648.7 L115.9 647.1 L116.1 645.6 L116.5 644.1 L117.0 642.7 L117.5 641.3 L118.2 640.0 L118.9 638.7 L119.6 637.5 L120.2 636.3 L120.9 635.2 L121.5 634.0 L122.1 632.9 L122.6 631.8 L123.2 630.7 L123.7 629.6 L124.3 628.4 L124.9 627.3 L125.6 626.2 L126.4 625.1 L127.2 624.0 L128.2 623.0 L129.2 622.0 L130.4 621.1 L131.6 620.2 L132.9 619.5 L134.3 618.8 L135.7 618.2 L137.2 617.6 L138.7 617.1 L140.3 616.7 L141.9 616.3 L143.4 615.9 L145.0 615.6 L146.7 615.3 L148.3 615.0 L150.0 614.8 L151.7 614.6 L153.4 614.5 L155.2 614.4 L157.0 614.4 L158.7 614.6 L160.5 614.8 L162.2 615.1 L163.9 615.6 L165.6 616.2 L167.1 616.9 L168.6 617.7 L170.0 618.5 L171.3 619.5 L172.4 620.6 L173.5 621.6 L174.6 622.8 L175.5 623.9 L176.4 625.0 L177.3 626.2 L178.1 627.3 L178.9 628.5 L179.7 629.7 L180.6 630.9 L181.3 632.1 L182.1 633.3 L182.8 634.6 L183.5 635.9 L184.0 637.2 L184.4 638.6Z"/><path d="M219.3 640.0 L219.4 642.8 L219.2 645.7 L218.5 648.5 L217.5 651.2 L216.2 653.8 L214.4 656.3 L212.4 658.7 L210.2 660.9 L207.8 663.0 L205.2 664.8 L202.5 666.6 L199.8 668.2 L197.0 669.7 L194.3 671.1 L191.7 672.5 L189.1 673.8 L186.5 675.2 L184.0 676.5 L181.5 677.8 L178.9 679.1 L176.4 680.4 L173.8 681.7 L171.1 682.9 L168.4 684.1 L165.5 685.2 L162.6 686.2 L159.6 687.1 L156.4 687.8 L153.3 688.4 L150.0 688.8 L146.7 689.1 L143.4 689.2 L140.0 689.3 L136.6 689.2 L133.2 688.9 L129.7 688.6 L126.3 688.2 L122.8 687.7 L119.2 687.1 L115.7 686.3 L112.2 685.5 L108.6 684.4 L105.1 683.2 L101.7 681.8 L98.5 680.2 L95.4 678.4 L92.5 676.3 L89.9 674.0 L87.7 671.6 L85.8 668.9 L84.3 666.1 L83.3 663.2 L82.6 660.2 L82.4 657.1 L82.5 654.1 L82.9 651.1 L83.7 648.2 L84.6 645.4 L85.8 642.6 L87.0 640.0 L88.3 637.5 L89.6 635.0 L90.9 632.7 L92.1 630.4 L93.2 628.1 L94.3 625.9 L95.4 623.7 L96.5 621.4 L97.5 619.2 L98.7 616.9 L99.9 614.6 L101.3 612.4 L102.8 610.2 L104.5 608.1 L106.4 606.0 L108.5 604.1 L110.8 602.3 L113.3 600.6 L115.9 599.0 L118.6 597.6 L121.5 596.3 L124.4 595.2 L127.4 594.1 L130.5 593.2 L133.6 592.3 L136.8 591.6 L140.0 590.9 L143.3 590.2 L146.6 589.7 L150.0 589.2 L153.4 588.8 L156.9 588.6 L160.5 588.5 L164.0 588.6 L167.5 588.9 L171.1 589.4 L174.5 590.2 L177.9 591.1 L181.1 592.3 L184.2 593.8 L187.2 595.4 L189.9 597.1 L192.5 599.1 L194.9 601.1 L197.1 603.3 L199.2 605.5 L201.1 607.7 L203.0 610.0 L204.8 612.3 L206.5 614.6 L208.2 616.9 L209.9 619.2 L211.5 621.6 L213.1 624.0 L214.6 626.5 L215.9 629.1 L217.1 631.7 L218.1 634.4 L218.9 637.2Z"/><path d="M253.6 640.0 L253.6 644.2 L253.1 648.5 L252.0 652.6 L250.4 656.6 L248.2 660.5 L245.6 664.2 L242.6 667.7 L239.3 671.0 L235.6 674.0 L231.8 676.9 L227.9 679.5 L224.0 681.9 L220.0 684.2 L216.0 686.4 L212.2 688.5 L208.3 690.5 L204.6 692.6 L200.8 694.6 L197.1 696.6 L193.4 698.6 L189.6 700.6 L185.7 702.6 L181.7 704.5 L177.6 706.3 L173.3 707.9 L168.9 709.4 L164.4 710.8 L159.7 711.9 L154.9 712.9 L150.0 713.6 L145.0 714.1 L140.0 714.4 L134.9 714.5 L129.7 714.5 L124.5 714.2 L119.2 713.8 L114.0 713.2 L108.6 712.5 L103.3 711.5 L97.9 710.4 L92.5 709.0 L87.3 707.4 L82.1 705.4 L77.0 703.2 L72.2 700.7 L67.7 697.8 L63.6 694.6 L59.9 691.0 L56.8 687.2 L54.2 683.2 L52.1 678.9 L50.7 674.5 L49.8 670.0 L49.6 665.5 L49.8 660.9 L50.5 656.5 L51.6 652.2 L53.0 647.9 L54.7 643.9 L56.4 640.0 L58.2 636.2 L60.1 632.6 L61.8 629.1 L63.6 625.7 L65.2 622.3 L66.8 618.9 L68.3 615.6 L69.9 612.2 L71.5 608.8 L73.2 605.4 L75.1 602.0 L77.1 598.7 L79.4 595.4 L82.0 592.2 L84.8 589.2 L88.0 586.3 L91.3 583.5 L95.0 580.9 L98.9 578.6 L102.9 576.4 L107.2 574.4 L111.5 572.6 L116.0 571.0 L120.6 569.5 L125.3 568.1 L130.1 566.9 L134.9 565.8 L139.9 564.8 L144.9 563.9 L150.0 563.2 L155.2 562.7 L160.5 562.4 L165.8 562.4 L171.1 562.6 L176.4 563.1 L181.7 564.0 L186.8 565.2 L191.8 566.7 L196.7 568.5 L201.3 570.7 L205.7 573.1 L209.8 575.8 L213.7 578.7 L217.3 581.7 L220.7 584.9 L223.9 588.1 L226.9 591.4 L229.8 594.8 L232.5 598.2 L235.2 601.6 L237.8 605.1 L240.3 608.6 L242.8 612.2 L245.1 615.9 L247.3 619.7 L249.2 623.5 L250.9 627.5 L252.2 631.6 L253.2 635.8Z"/><path d="M287.6 640.0 L287.4 645.6 L286.4 651.2 L284.8 656.7 L282.5 662.0 L279.6 667.1 L276.1 671.9 L272.1 676.5 L267.7 680.9 L262.9 684.9 L258.0 688.6 L252.9 692.1 L247.8 695.4 L242.6 698.5 L237.5 701.5 L232.5 704.3 L227.5 707.1 L222.6 709.9 L217.7 712.7 L212.8 715.4 L207.9 718.2 L202.8 720.9 L197.7 723.5 L192.4 726.1 L186.9 728.5 L181.2 730.8 L175.3 732.9 L169.2 734.7 L163.0 736.3 L156.6 737.7 L150.0 738.8 L143.3 739.6 L136.5 740.1 L129.6 740.4 L122.6 740.4 L115.6 740.2 L108.5 739.7 L101.3 738.9 L94.1 737.9 L86.9 736.6 L79.7 735.0 L72.5 733.1 L65.5 730.7 L58.7 728.0 L52.1 724.8 L45.8 721.2 L40.1 717.2 L34.8 712.8 L30.1 707.9 L26.2 702.7 L22.9 697.2 L20.4 691.5 L18.7 685.6 L17.8 679.6 L17.5 673.6 L17.9 667.6 L18.9 661.7 L20.3 656.0 L22.1 650.5 L24.2 645.1 L26.4 640.0 L28.7 635.0 L31.0 630.2 L33.2 625.6 L35.4 621.0 L37.4 616.5 L39.5 612.0 L41.5 607.5 L43.5 603.0 L45.6 598.5 L47.9 594.0 L50.3 589.5 L53.1 585.1 L56.2 580.7 L59.6 576.5 L63.3 572.4 L67.4 568.5 L71.9 564.8 L76.7 561.3 L81.8 558.1 L87.1 555.1 L92.7 552.3 L98.5 549.8 L104.5 547.5 L110.6 545.4 L116.9 543.5 L123.2 541.8 L129.7 540.3 L136.4 538.9 L143.1 537.8 L150.0 536.9 L157.0 536.3 L164.0 536.0 L171.1 536.0 L178.2 536.4 L185.3 537.2 L192.3 538.5 L199.1 540.1 L205.8 542.2 L212.2 544.8 L218.4 547.6 L224.2 550.9 L229.7 554.4 L234.9 558.2 L239.8 562.2 L244.4 566.4 L248.7 570.7 L252.8 575.1 L256.8 579.5 L260.5 584.0 L264.2 588.6 L267.7 593.2 L271.1 597.9 L274.3 602.8 L277.4 607.7 L280.1 612.8 L282.6 618.0 L284.6 623.4 L286.2 628.8 L287.2 634.4Z"/><path d="M321.1 640.0 L320.5 647.0 L319.1 653.9 L316.9 660.6 L313.9 667.2 L310.2 673.5 L305.8 679.5 L300.8 685.2 L295.4 690.5 L289.6 695.5 L283.6 700.2 L277.5 704.6 L271.2 708.7 L265.0 712.6 L258.8 716.4 L252.7 720.1 L246.6 723.7 L240.6 727.2 L234.5 730.8 L228.5 734.3 L222.4 737.8 L216.1 741.2 L209.7 744.6 L203.1 747.8 L196.2 750.9 L189.1 753.8 L181.8 756.5 L174.2 758.9 L166.3 761.1 L158.3 762.9 L150.0 764.4 L141.6 765.5 L133.0 766.3 L124.2 766.8 L115.4 767.0 L106.5 766.8 L97.4 766.2 L88.3 765.3 L79.2 764.0 L70.1 762.3 L61.1 760.1 L52.2 757.5 L43.4 754.4 L35.0 750.8 L26.9 746.6 L19.4 741.9 L12.4 736.6 L6.1 730.9 L0.6 724.6 L-4.0 718.0 L-7.8 711.0 L-10.6 703.8 L-12.5 696.4 L-13.5 689.0 L-13.7 681.5 L-13.1 674.1 L-11.9 666.8 L-10.2 659.8 L-8.1 653.0 L-5.7 646.4 L-3.1 640.0 L-0.4 633.9 L2.2 627.9 L4.9 622.1 L7.4 616.4 L9.9 610.7 L12.3 605.1 L14.7 599.5 L17.2 593.9 L19.8 588.3 L22.6 582.6 L25.7 577.1 L29.1 571.5 L32.9 566.1 L37.2 560.8 L41.8 555.6 L46.9 550.7 L52.4 546.0 L58.3 541.6 L64.6 537.5 L71.2 533.6 L78.2 530.0 L85.4 526.8 L92.8 523.8 L100.4 521.0 L108.3 518.5 L116.3 516.3 L124.5 514.3 L132.8 512.6 L141.3 511.3 L150.0 510.2 L158.8 509.5 L167.6 509.3 L176.5 509.4 L185.4 510.1 L194.2 511.2 L202.9 512.9 L211.5 515.1 L219.7 517.8 L227.7 521.0 L235.4 524.6 L242.7 528.7 L249.6 533.1 L256.1 537.8 L262.3 542.7 L268.1 547.8 L273.7 553.1 L278.9 558.6 L284.0 564.1 L288.8 569.7 L293.4 575.4 L297.9 581.2 L302.1 587.2 L306.1 593.3 L309.7 599.5 L313.0 605.9 L315.9 612.5 L318.2 619.2 L319.8 626.1 L320.8 633.0Z"/><path d="M353.9 640.0 L352.9 648.3 L351.0 656.5 L348.2 664.5 L344.5 672.2 L340.0 679.7 L334.8 686.8 L328.9 693.6 L322.6 699.9 L315.8 705.9 L308.9 711.5 L301.7 716.8 L294.5 721.9 L287.2 726.7 L280.0 731.3 L272.8 735.8 L265.7 740.2 L258.6 744.6 L251.4 748.9 L244.2 753.2 L236.9 757.4 L229.5 761.7 L221.8 765.8 L213.9 769.8 L205.6 773.6 L197.1 777.2 L188.3 780.5 L179.1 783.5 L169.7 786.2 L160.0 788.6 L150.0 790.5 L139.8 792.1 L129.4 793.2 L118.7 793.9 L108.0 794.2 L97.1 794.0 L86.1 793.4 L75.1 792.3 L64.0 790.7 L53.0 788.5 L42.1 785.7 L31.5 782.3 L21.1 778.3 L11.2 773.7 L1.8 768.4 L-7.0 762.5 L-15.0 755.9 L-22.2 748.8 L-28.4 741.1 L-33.6 733.0 L-37.8 724.6 L-40.9 715.9 L-42.9 707.0 L-44.0 698.1 L-44.1 689.2 L-43.4 680.4 L-42.0 671.8 L-40.1 663.5 L-37.7 655.4 L-34.9 647.6 L-32.1 640.0 L-29.1 632.7 L-26.1 625.6 L-23.2 618.6 L-20.3 611.8 L-17.5 605.0 L-14.7 598.3 L-11.8 591.5 L-8.9 584.8 L-5.8 578.1 L-2.5 571.3 L1.2 564.6 L5.3 558.0 L9.8 551.4 L14.8 545.0 L20.3 538.8 L26.3 532.9 L32.8 527.2 L39.9 521.7 L47.3 516.7 L55.2 511.9 L63.4 507.5 L72.0 503.4 L80.9 499.6 L90.1 496.2 L99.5 493.1 L109.2 490.4 L119.1 488.0 L129.2 486.0 L139.5 484.3 L150.0 483.2 L160.6 482.5 L171.2 482.3 L181.9 482.7 L192.6 483.6 L203.2 485.2 L213.6 487.3 L223.8 490.1 L233.7 493.4 L243.2 497.3 L252.4 501.7 L261.2 506.5 L269.5 511.7 L277.4 517.3 L284.9 523.1 L292.0 529.2 L298.8 535.5 L305.3 541.9 L311.4 548.5 L317.3 555.3 L322.9 562.1 L328.2 569.2 L333.2 576.4 L337.9 583.7 L342.1 591.3 L345.8 599.1 L349.0 607.0 L351.4 615.1 L353.1 623.3 L354.0 631.7Z"/><path d="M386.1 640.0 L384.7 649.6 L382.2 659.0 L378.8 668.3 L374.4 677.2 L369.1 685.8 L363.1 694.0 L356.4 701.8 L349.2 709.2 L341.6 716.2 L333.7 722.7 L325.7 729.0 L317.5 734.9 L309.3 740.6 L301.1 746.1 L292.9 751.5 L284.8 756.7 L276.6 761.9 L268.4 767.1 L260.1 772.2 L251.6 777.3 L242.9 782.3 L234.0 787.2 L224.8 791.9 L215.2 796.5 L205.2 800.8 L194.9 804.8 L184.2 808.6 L173.2 811.9 L161.7 814.8 L150.0 817.3 L138.0 819.3 L125.6 820.8 L113.1 821.8 L100.4 822.2 L87.5 822.0 L74.5 821.3 L61.5 819.9 L48.5 817.9 L35.6 815.1 L23.0 811.6 L10.6 807.4 L-1.3 802.4 L-12.6 796.7 L-23.3 790.1 L-33.2 782.9 L-42.2 775.0 L-50.1 766.4 L-56.9 757.3 L-62.6 747.7 L-67.1 737.8 L-70.4 727.6 L-72.6 717.3 L-73.6 707.0 L-73.7 696.7 L-72.9 686.6 L-71.3 676.7 L-69.2 667.1 L-66.6 657.8 L-63.7 648.7 L-60.6 640.0 L-57.3 631.5 L-54.1 623.3 L-50.9 615.2 L-47.7 607.2 L-44.6 599.3 L-41.5 591.5 L-38.2 583.6 L-34.9 575.8 L-31.3 567.9 L-27.5 560.1 L-23.3 552.2 L-18.6 544.5 L-13.4 536.8 L-7.6 529.3 L-1.3 522.0 L5.6 514.9 L13.1 508.2 L21.2 501.7 L29.8 495.6 L38.9 489.9 L48.4 484.5 L58.4 479.6 L68.8 475.0 L79.6 470.9 L90.6 467.2 L102.0 464.0 L113.7 461.2 L125.6 458.9 L137.7 457.1 L150.0 455.9 L162.4 455.2 L174.9 455.2 L187.4 455.8 L199.8 457.1 L212.1 459.1 L224.2 461.8 L236.1 465.1 L247.6 469.0 L258.7 473.6 L269.4 478.7 L279.6 484.3 L289.4 490.3 L298.7 496.7 L307.6 503.5 L316.1 510.5 L324.1 517.7 L331.7 525.2 L339.0 532.9 L345.9 540.7 L352.5 548.8 L358.7 557.1 L364.4 565.5 L369.7 574.2 L374.4 583.1 L378.4 592.3 L381.7 601.6 L384.2 611.1 L385.8 620.7 L386.4 630.3Z"/><path d="M417.5 640.0 L415.6 650.9 L412.6 661.5 L408.5 671.9 L403.5 682.0 L397.5 691.7 L390.8 701.0 L383.4 709.9 L375.4 718.3 L367.0 726.3 L358.3 733.8 L349.4 741.0 L340.4 747.9 L331.3 754.5 L322.2 760.9 L313.1 767.2 L303.9 773.4 L294.7 779.4 L285.5 785.4 L276.0 791.4 L266.4 797.3 L256.5 803.1 L246.4 808.8 L235.8 814.4 L224.9 819.7 L213.5 824.8 L201.7 829.7 L189.4 834.1 L176.7 838.1 L163.6 841.7 L150.0 844.7 L136.1 847.2 L121.8 849.1 L107.3 850.3 L92.5 850.9 L77.6 850.7 L62.6 849.8 L47.6 848.1 L32.7 845.5 L18.0 842.1 L3.6 837.8 L-10.4 832.6 L-23.8 826.5 L-36.4 819.6 L-48.2 811.7 L-59.1 803.1 L-68.9 793.7 L-77.5 783.7 L-84.8 773.1 L-90.9 762.0 L-95.6 750.6 L-99.1 739.0 L-101.3 727.3 L-102.4 715.6 L-102.4 704.0 L-101.6 692.6 L-100.0 681.4 L-97.7 670.6 L-95.0 660.1 L-91.9 649.9 L-88.6 640.0 L-85.2 630.4 L-81.8 621.0 L-78.4 611.8 L-75.0 602.7 L-71.5 593.7 L-68.1 584.7 L-64.5 575.8 L-60.8 566.8 L-56.8 557.8 L-52.5 548.8 L-47.7 539.9 L-42.4 531.0 L-36.6 522.2 L-30.1 513.5 L-23.0 505.1 L-15.2 496.9 L-6.8 489.0 L2.3 481.4 L12.0 474.2 L22.3 467.5 L33.2 461.2 L44.6 455.3 L56.5 450.0 L68.8 445.1 L81.6 440.8 L94.7 437.1 L108.2 433.9 L121.9 431.4 L135.9 429.5 L150.0 428.3 L164.3 427.8 L178.6 428.0 L192.9 428.9 L207.1 430.6 L221.1 433.1 L234.9 436.2 L248.4 440.1 L261.5 444.7 L274.2 449.9 L286.4 455.7 L298.1 462.1 L309.4 468.9 L320.2 476.1 L330.4 483.7 L340.2 491.6 L349.5 499.9 L358.4 508.4 L366.8 517.1 L374.7 526.2 L382.2 535.4 L389.2 544.9 L395.6 554.7 L401.3 564.7 L406.4 575.0 L410.6 585.5 L414.0 596.2 L416.5 607.1 L417.9 618.0 L418.2 629.0Z"/></svg>